<svg width="19" height="21" viewBox="0 0 19 21" fill="none" xmlns="http://www.w3.org/2000/svg">
<path d="M10.0041 0.223396C9.49 -0.0744652 8.85661 -0.0744652 8.34253 0.223396L0.830716 4.57569C0.316648 4.87355 -4.86189e-05 5.42406 -6.51506e-05 6.01977V14.7246L0.000847572 14.7802C0.0199056 15.3544 0.3327 15.8801 0.830716 16.1686L8.34253 20.5209L8.3911 20.548C8.87982 20.8098 9.46679 20.8098 9.95551 20.548L10.0041 20.5209L17.5159 16.1686C18.0139 15.8801 18.3267 15.3544 18.3458 14.7802L18.3467 14.7246V6.01977C18.3467 5.44267 18.0494 4.90803 17.5635 4.60439L17.5159 4.57569L10.0041 0.223396ZM16.407 15.2467L10.4059 18.7237L14.3999 11.7338L16.407 15.2467ZM7.94083 18.7237L1.93967 15.2467L3.94685 11.7338L7.94083 18.7237ZM13.2347 11.0496L9.17341 18.1572L5.1122 11.0496H13.2347ZM16.9967 13.5551L15.178 10.3721L16.9967 7.18916V13.5551ZM3.16881 10.3721L1.34995 13.5551V7.18916L3.16881 10.3721ZM13.2348 9.69475H5.11199L9.17341 2.58681L13.2348 9.69475ZM16.407 5.49756L14.3999 9.01031L10.4059 2.02053L16.407 5.49756ZM3.94685 9.01021L1.93967 5.49756L7.94083 2.02043L3.94685 9.01021Z" fill="#1E1E20"/>
</svg>
