<svg width="61" height="21" viewBox="0 0 61 21" fill="none" xmlns="http://www.w3.org/2000/svg">
<path d="M10.0041 0.223396C9.49 -0.0744652 8.85661 -0.0744652 8.34253 0.223396L0.830716 4.57569C0.316648 4.87355 -4.86189e-05 5.42406 -6.51506e-05 6.01977V14.7246L0.000847572 14.7802C0.0199056 15.3544 0.3327 15.8801 0.830716 16.1686L8.34253 20.5209L8.3911 20.548C8.87982 20.8098 9.46679 20.8098 9.95551 20.548L10.0041 20.5209L17.5159 16.1686C18.0139 15.8801 18.3267 15.3544 18.3458 14.7802L18.3467 14.7246V6.01977C18.3467 5.44267 18.0494 4.90803 17.5635 4.60439L17.5159 4.57569L10.0041 0.223396ZM16.407 15.2467L10.4059 18.7237L14.3999 11.7338L16.407 15.2467ZM7.94083 18.7237L1.93967 15.2467L3.94685 11.7338L7.94083 18.7237ZM13.2347 11.0496L9.17341 18.1572L5.1122 11.0496H13.2347ZM16.9967 13.5551L15.178 10.3721L16.9967 7.18916V13.5551ZM3.16881 10.3721L1.34995 13.5551V7.18916L3.16881 10.3721ZM13.2348 9.69475H5.11199L9.17341 2.58681L13.2348 9.69475ZM16.407 5.49756L14.3999 9.01031L10.4059 2.02053L16.407 5.49756ZM3.94685 9.01021L1.93967 5.49756L7.94083 2.02043L3.94685 9.01021Z" fill="#FDFDFD"/>
<path d="M30.7615 15.8721H27.4653V5.69025H30.8659C31.8635 5.69025 32.7203 5.89409 33.4362 6.30176C34.1521 6.70611 34.7006 7.28779 35.0818 8.04679C35.4662 8.80247 35.6585 9.70895 35.6585 10.7662C35.6585 11.8269 35.4646 12.7383 35.0768 13.5006C34.6923 14.2629 34.1355 14.8496 33.4063 15.2606C32.6772 15.6682 31.7955 15.8721 30.7615 15.8721ZM29.0015 14.5297H30.6769C31.4525 14.5297 32.0972 14.3839 32.6109 14.0922C33.1246 13.7973 33.5091 13.3714 33.7643 12.8145C34.0195 12.2544 34.1471 11.5716 34.1471 10.7662C34.1471 9.96748 34.0195 9.28968 33.7643 8.73287C33.5124 8.17605 33.1362 7.75346 32.6357 7.46511C32.1353 7.17676 31.5138 7.03258 30.7714 7.03258H29.0015V14.5297ZM40.6661 16.0262C39.9502 16.0262 39.3254 15.8621 38.7918 15.534C38.2582 15.2059 37.8439 14.7468 37.5489 14.1569C37.2539 13.5669 37.1064 12.8775 37.1064 12.0887C37.1064 11.2965 37.2539 10.6038 37.5489 10.0106C37.8439 9.41729 38.2582 8.95659 38.7918 8.62846C39.3254 8.30034 39.9502 8.13627 40.6661 8.13627C41.382 8.13627 42.0068 8.30034 42.5404 8.62846C43.074 8.95659 43.4883 9.41729 43.7833 10.0106C44.0783 10.6038 44.2258 11.2965 44.2258 12.0887C44.2258 12.8775 44.0783 13.5669 43.7833 14.1569C43.4883 14.7468 43.074 15.2059 42.5404 15.534C42.0068 15.8621 41.382 16.0262 40.6661 16.0262ZM40.6711 14.7783C41.1351 14.7783 41.5196 14.6557 41.8245 14.4104C42.1294 14.1652 42.3548 13.8387 42.5006 13.431C42.6498 13.0233 42.7243 12.5742 42.7243 12.0837C42.7243 11.5965 42.6498 11.1491 42.5006 10.7414C42.3548 10.3304 42.1294 10.0006 41.8245 9.75204C41.5196 9.50346 41.1351 9.37917 40.6711 9.37917C40.2037 9.37917 39.816 9.50346 39.5077 9.75204C39.2028 10.0006 38.9758 10.3304 38.8266 10.7414C38.6808 11.1491 38.6079 11.5965 38.6079 12.0837C38.6079 12.5742 38.6808 13.0233 38.8266 13.431C38.9758 13.8387 39.2028 14.1652 39.5077 14.4104C39.816 14.6557 40.2037 14.7783 40.6711 14.7783ZM49.1017 16.0262C48.3625 16.0262 47.7262 15.8588 47.1926 15.5241C46.6623 15.186 46.2546 14.7203 45.9695 14.127C45.6845 13.5338 45.542 12.8543 45.542 12.0887C45.542 11.3131 45.6878 10.6287 45.9795 10.0354C46.2712 9.43883 46.6821 8.97316 47.2124 8.63841C47.7427 8.30365 48.3675 8.13627 49.0867 8.13627C49.6668 8.13627 50.1838 8.24399 50.6379 8.45943C51.0919 8.67155 51.4582 8.96984 51.7366 9.35431C52.0183 9.73878 52.1857 10.1879 52.2387 10.7016H50.792C50.7124 10.3437 50.5302 10.0354 50.2451 9.7769C49.9634 9.51838 49.5856 9.38912 49.1116 9.38912C48.6973 9.38912 48.3344 9.49849 48.0228 9.71724C47.7146 9.93268 47.4743 10.2409 47.3019 10.642C47.1296 11.0397 47.0434 11.5103 47.0434 12.0539C47.0434 12.6107 47.1279 13.0913 47.297 13.4956C47.466 13.9 47.7046 14.2132 48.0129 14.4353C48.3244 14.6573 48.6907 14.7684 49.1116 14.7684C49.3933 14.7684 49.6485 14.717 49.8772 14.6143C50.1092 14.5082 50.3031 14.3574 50.4589 14.1618C50.618 13.9663 50.729 13.731 50.792 13.4559H52.2387C52.1857 13.9497 52.0249 14.3905 51.7565 14.7783C51.488 15.1661 51.1284 15.471 50.6776 15.6931C50.2302 15.9152 49.7049 16.0262 49.1017 16.0262ZM59.5507 10.1001L58.2034 10.3387C58.147 10.1663 58.0576 10.0023 57.9349 9.8465C57.8156 9.69073 57.6532 9.56312 57.4477 9.46369C57.2422 9.36426 56.9854 9.31454 56.6771 9.31454C56.2562 9.31454 55.9049 9.409 55.6231 9.59792C55.3414 9.78353 55.2006 10.0238 55.2006 10.3188C55.2006 10.574 55.295 10.7795 55.4839 10.9353C55.6729 11.0911 55.9778 11.2187 56.3987 11.3181L57.6118 11.5965C58.3144 11.7589 58.8381 12.0091 59.1828 12.3472C59.5275 12.6853 59.6998 13.1244 59.6998 13.6647C59.6998 14.1221 59.5673 14.5297 59.3021 14.8877C59.0403 15.2423 58.674 15.5207 58.2034 15.7229C57.7361 15.9251 57.1942 16.0262 56.5777 16.0262C55.7226 16.0262 55.0249 15.8439 54.4846 15.4793C53.9444 15.1114 53.613 14.5894 53.4903 13.9133L54.9271 13.6945C55.0166 14.069 55.2006 14.3524 55.479 14.5447C55.7574 14.7336 56.1203 14.828 56.5677 14.828C57.055 14.828 57.4444 14.7269 57.7361 14.5248C58.0277 14.3193 58.1736 14.069 58.1736 13.7741C58.1736 13.5354 58.0841 13.3349 57.9051 13.1725C57.7294 13.0101 57.4593 12.8875 57.0947 12.8046L55.8021 12.5212C55.0895 12.3588 54.5625 12.1003 54.2211 11.7456C53.8831 11.391 53.714 10.9419 53.714 10.3983C53.714 9.94759 53.84 9.55318 54.0919 9.21511C54.3438 8.87704 54.6918 8.61355 55.1359 8.42463C55.58 8.23239 56.0888 8.13627 56.6622 8.13627C57.4875 8.13627 58.1371 8.31525 58.6111 8.67321C59.085 9.02785 59.3982 9.50346 59.5507 10.1001Z" fill="#FDFDFD"/>
</svg>
